<svg width="17" height="19" viewBox="0 0 17 19" fill="none" xmlns="http://www.w3.org/2000/svg">
<path d="M8.34375 15.0156C8.6875 15.0156 9.16406 13.7109 9.16406 11.6016V6.67969C10.4844 6.32031 11.4453 5.10938 11.4453 3.67969C11.4453 1.96094 10.0703 0.5625 8.34375 0.5625C6.625 0.5625 5.25 1.96094 5.25 3.67969C5.25 5.10156 6.20312 6.3125 7.52344 6.67188V11.6016C7.52344 13.7031 8.00781 15.0156 8.34375 15.0156ZM7.46875 3.85156C6.90625 3.85156 6.40625 3.35938 6.40625 2.78125C6.40625 2.21094 6.90625 1.72656 7.46875 1.72656C8.05469 1.72656 8.53125 2.21094 8.53125 2.78125C8.53125 3.35938 8.05469 3.85156 7.46875 3.85156ZM8.34375 18.0938C13.3125 18.0938 16.2891 16.4219 16.2891 14.5C16.2891 12.3984 13.0703 11.0391 10.5 10.9297V12.3281C12.25 12.4062 14.5078 13.2109 14.5078 14.3438C14.5078 15.6875 11.9141 16.6172 8.34375 16.6172C4.77344 16.6172 2.1875 15.6953 2.1875 14.3438C2.1875 13.2109 4.44531 12.4062 6.1875 12.3281V10.9297C3.61719 11.0391 0.398438 12.3984 0.398438 14.5C0.398438 16.4219 3.375 18.0938 8.34375 18.0938Z" fill="#718096"/>
</svg>
