<svg width="23" height="24" viewBox="0 0 23 24" fill="none" xmlns="http://www.w3.org/2000/svg">
<path opacity="0.4" d="M7.76072 2C4.49727 2 2.55176 4.17 2.55176 7.81V16.18C2.55176 19.83 4.49727 22 7.76072 22H15.2649C18.5283 22 20.4738 19.83 20.4738 16.19V7.81C20.4828 4.17 18.5373 2 15.2738 2H7.76072Z" fill="#292D32"/>
<path d="M14.0546 18.5001V14.6001C14.0546 14.1901 14.3594 13.8501 14.727 13.8501C15.0946 13.8501 15.3994 14.1901 15.3994 14.6001V18.5001C15.3994 18.9101 15.0946 19.2501 14.727 19.2501C14.3594 19.2501 14.0546 18.9101 14.0546 18.5001Z" fill="#292D32"/>
<path d="M14.0546 7.45V5.5C14.0546 5.09 14.3594 4.75 14.727 4.75C15.0946 4.75 15.3994 5.09 15.3994 5.5V7.45C15.3994 7.86 15.0946 8.2 14.727 8.2C14.3594 8.2 14.0546 7.86 14.0546 7.45Z" fill="#292D32"/>
<path d="M7.63513 18.4998V16.5498C7.63513 16.1398 7.93996 15.7998 8.30755 15.7998C8.67513 15.7998 8.97996 16.1398 8.97996 16.5498V18.4998C8.97996 18.9098 8.6841 19.2498 8.30755 19.2498C7.93996 19.2498 7.63513 18.9098 7.63513 18.4998Z" fill="#292D32"/>
<path d="M7.63513 9.4V5.5C7.63513 5.09 7.93996 4.75 8.30755 4.75C8.67513 4.75 8.97996 5.09 8.97996 5.5V9.4C8.97996 9.81 8.6841 10.15 8.30755 10.15C7.93996 10.15 7.63513 9.81 7.63513 9.4Z" fill="#292D32"/>
<path d="M12.2791 10.0501C12.2791 11.5501 13.3728 12.7801 14.7266 12.7801C16.0715 12.7801 17.1653 11.5601 17.1653 10.0501C17.1653 8.54008 16.0715 7.33008 14.7266 7.33008C13.3818 7.33008 12.2791 8.55008 12.2791 10.0501Z" fill="#292D32"/>
<path d="M5.86829 13.96C5.86829 15.47 6.96208 16.68 8.30691 16.68C9.65173 16.68 10.7545 15.46 10.7545 13.96C10.7545 12.46 9.6607 11.23 8.30691 11.23C6.96208 11.23 5.86829 12.45 5.86829 13.96Z" fill="#292D32"/>
</svg>
